<svg width="16" height="16" viewBox="0 0 16 16" fill="none" xmlns="http://www.w3.org/2000/svg">
<g clip-path="url(#clip0_1_487)">
<path d="M15.2229 10.7393C15.2229 10.7393 15.2229 10.7393 15.2229 10.7393L9.46211 7.13896C9.36167 7.07618 9.24559 7.04288 9.12716 7.04288H8.6326V6.77424C9.6107 6.49809 10.3296 5.59754 10.3296 4.53226C10.3296 3.248 9.28481 2.20316 8.00055 2.20316C6.71625 2.20316 5.67145 3.248 5.67145 4.53226C5.67145 4.88133 5.95443 5.16431 6.3035 5.16431C6.65258 5.16431 6.93556 4.88133 6.93556 4.53226C6.93556 3.94502 7.41328 3.46726 8.00055 3.46726C8.58778 3.46726 9.06551 3.94502 9.06551 4.53226C9.06551 5.11949 8.58775 5.59725 8.00055 5.59725C7.65147 5.59725 7.3685 5.88023 7.3685 6.2293V7.04288H6.87394C6.75551 7.04288 6.63943 7.07618 6.53899 7.13896L0.778157 10.7393C0.291258 11.0436 0.000549316 11.5681 0.000549316 12.1423C0.000549316 13.0546 0.742761 13.7968 1.65505 13.7968H14.346C15.2583 13.7968 16.0005 13.0546 16.0005 12.1423C16.0005 11.5681 15.7098 11.0436 15.2229 10.7393ZM14.346 12.5327H1.65505C1.43979 12.5327 1.26466 12.3576 1.26466 12.1423C1.26466 12.0069 1.33324 11.883 1.44813 11.8112L7.05518 8.30699H8.94589L14.5529 11.8112C14.6679 11.883 14.7364 12.0069 14.7364 12.1423C14.7364 12.3576 14.5613 12.5327 14.346 12.5327Z" fill="#424551"/>
</g>
<defs>
<clipPath id="clip0_1_487">
<rect width="16" height="16" fill="white" transform="translate(0.000549316)"/>
</clipPath>
</defs>
</svg>
