<svg width="55" height="42" viewBox="0 0 55 42" fill="none" xmlns="http://www.w3.org/2000/svg">
<path d="M53.2001 41.4262V41.5341H53.3007C53.3196 41.5344 53.3383 41.5297 53.3547 41.5204C53.3613 41.5157 53.3666 41.5095 53.3701 41.5023C53.3736 41.4951 53.3753 41.4871 53.3749 41.4791C53.3753 41.4712 53.3736 41.4634 53.3701 41.4563C53.3665 41.4493 53.3612 41.4433 53.3547 41.4388C53.3384 41.4291 53.3197 41.4243 53.3007 41.4251H53.2001V41.4262ZM53.3018 41.3498C53.345 41.3471 53.3877 41.3595 53.4227 41.3849C53.4368 41.3964 53.4479 41.411 53.4553 41.4276C53.4626 41.4442 53.466 41.4623 53.4651 41.4804C53.4657 41.496 53.463 41.5116 53.4572 41.5261C53.4513 41.5405 53.4424 41.5536 53.4311 41.5643C53.4041 41.5878 53.3702 41.6019 53.3345 41.6046L53.4694 41.7584H53.3655L53.2413 41.6056H53.2011V41.7584H53.1142V41.35H53.3032L53.3018 41.3498ZM53.2748 41.8993C53.3204 41.8997 53.3655 41.8905 53.4073 41.8723C53.4476 41.855 53.4842 41.8301 53.5153 41.7992C53.5464 41.7682 53.5712 41.7316 53.5884 41.6912C53.6238 41.6057 53.6238 41.5095 53.5884 41.424C53.571 41.3838 53.5462 41.3472 53.5153 41.316C53.4842 41.2851 53.4476 41.2603 53.4073 41.2429C53.3653 41.2257 53.3202 41.217 53.2748 41.2175C53.2286 41.2171 53.1828 41.2257 53.1399 41.2429C53.0987 41.2599 53.0612 41.2848 53.0295 41.316C52.9817 41.365 52.9494 41.427 52.9366 41.4941C52.9238 41.5613 52.931 41.6308 52.9574 41.6939C52.9739 41.7344 52.9984 41.7711 53.0295 41.8019C53.0612 41.8331 53.0987 41.858 53.1399 41.875C53.1825 41.8932 53.2285 41.9024 53.2748 41.902V41.8993ZM53.2748 41.1193C53.3934 41.1192 53.5073 41.1657 53.5919 41.2488C53.6327 41.2888 53.6652 41.3364 53.6875 41.3889C53.7106 41.4429 53.7224 41.5009 53.7224 41.5596C53.7224 41.6183 53.7106 41.6764 53.6875 41.7303C53.6647 41.7826 53.6323 41.8301 53.5919 41.8704C53.5505 41.9101 53.5024 41.9421 53.4497 41.9649C53.3944 41.9884 53.3349 42.0003 53.2748 42C53.214 42.0004 53.1538 41.9885 53.0978 41.9649C53.0445 41.9426 52.9959 41.9106 52.9544 41.8704C52.9141 41.8286 52.8821 41.7795 52.8603 41.7257C52.8372 41.6718 52.8253 41.6137 52.8253 41.555C52.8253 41.4964 52.8372 41.4383 52.8603 41.3843C52.8825 41.3318 52.915 41.2842 52.9558 41.2443C52.9967 41.2034 53.0454 41.1712 53.0991 41.1498C53.1551 41.1262 53.2154 41.1143 53.2762 41.1147L53.2748 41.1193ZM11.9485 39.5423C11.9485 38.7636 12.4586 38.124 13.2923 38.124C14.0891 38.124 14.6267 38.7361 14.6267 39.5423C14.6267 40.3485 14.0891 40.9606 13.2923 40.9606C12.4586 40.9606 11.9485 40.3209 11.9485 39.5423ZM15.5349 39.5423V37.3265H14.5716V37.8662C14.2661 37.4673 13.8027 37.2172 13.1725 37.2172C11.931 37.2172 10.9567 38.1909 10.9567 39.5434C10.9567 40.8958 11.9304 41.8696 13.1725 41.8696C13.8024 41.8696 14.2661 41.6191 14.5716 41.2205V41.7584H15.5338V39.5423H15.5349ZM48.082 39.5423C48.082 38.7636 48.5921 38.124 49.4261 38.124C50.2236 38.124 50.7605 38.7361 50.7605 39.5423C50.7605 40.3485 50.2236 40.9606 49.4261 40.9606C48.5924 40.9606 48.082 40.3209 48.082 39.5423ZM51.6695 39.5423V35.5479H50.7054V37.8662C50.3999 37.4673 49.9365 37.2172 49.3063 37.2172C48.0648 37.2172 47.0904 38.1909 47.0904 39.5434C47.0904 40.8958 48.0642 41.8696 49.3063 41.8696C49.9365 41.8696 50.3999 41.6191 50.7054 41.2205V41.7584H51.6695V39.5423ZM27.4901 38.0784C28.1109 38.0784 28.5095 38.4676 28.6113 39.1528H26.3129C26.4157 38.5132 26.8041 38.0784 27.4904 38.0784H27.4901ZM27.5096 37.2147C26.2114 37.2147 25.3032 38.1594 25.3032 39.5409C25.3032 40.9495 26.2478 41.8672 27.5741 41.8672C28.2413 41.8672 28.8523 41.7006 29.3899 41.2464L28.9179 40.5325C28.5465 40.8294 28.0737 40.9959 27.6291 40.9959C27.0084 40.9959 26.4432 40.7085 26.3042 39.911H29.5934C29.6029 39.7911 29.6126 39.6702 29.6126 39.5407C29.6029 38.1596 28.7489 37.2145 27.509 37.2145L27.5096 37.2147ZM39.1388 39.5407C39.1388 38.762 39.6489 38.1224 40.4826 38.1224C41.2793 38.1224 41.817 38.7345 41.817 39.5407C41.817 40.3469 41.2793 40.959 40.4826 40.959C39.6489 40.959 39.1385 40.3193 39.1385 39.5407H39.1388ZM42.7249 39.5407V37.3265H41.7622V37.8662C41.4556 37.4673 40.9932 37.2172 40.363 37.2172C39.1215 37.2172 38.1472 38.1909 38.1472 39.5434C38.1472 40.8958 39.121 41.8696 40.363 41.8696C40.9932 41.8696 41.4556 41.6191 41.7622 41.2205V41.7584H42.7252V39.5423L42.7249 39.5407ZM33.6991 39.5407C33.6991 40.8845 34.6345 41.8669 36.0623 41.8669C36.7295 41.8669 37.174 41.7185 37.6547 41.3387L37.192 40.5601C36.8304 40.82 36.4506 40.959 36.0315 40.959C35.2626 40.9495 34.6971 40.3935 34.6971 39.5407C34.6971 38.6878 35.2626 38.1321 36.0315 38.1224C36.4496 38.1224 36.8293 38.2614 37.192 38.5213L37.6547 37.7426C37.1732 37.3629 36.7286 37.2145 36.0623 37.2145C34.6345 37.2145 33.6991 38.1966 33.6991 39.5407ZM46.1169 37.2145C45.5612 37.2145 45.1993 37.4744 44.9491 37.8636V37.3265H43.9945V41.756H44.9588V39.2729C44.9588 38.5399 45.2738 38.1326 45.9034 38.1326C46.1096 38.1297 46.3144 38.1675 46.5059 38.2441L46.8027 37.3362C46.5895 37.2522 46.3115 37.2153 46.1164 37.2153L46.1169 37.2145ZM20.2972 37.6787C19.8338 37.3732 19.1952 37.2153 18.4908 37.2153C17.3685 37.2153 16.646 37.7532 16.646 38.6333C16.646 39.3555 17.1839 39.8011 18.1745 39.9401L18.6295 40.0049C19.1577 40.0791 19.4071 40.2181 19.4071 40.4683C19.4071 40.8108 19.0562 41.0062 18.3974 41.0062C17.7302 41.0062 17.2487 40.793 16.924 40.5428L16.4714 41.2939C16.9996 41.6831 17.6668 41.8688 18.3893 41.8688C19.6686 41.8688 20.41 41.2664 20.41 40.423C20.41 39.6443 19.8265 39.237 18.8624 39.098L18.4085 39.0322C17.9915 38.9782 17.6573 38.8943 17.6573 38.5974C17.6573 38.2735 17.9723 38.0787 18.5008 38.0787C19.0662 38.0787 19.6135 38.2919 19.8818 38.4584L20.2988 37.6798L20.2972 37.6787ZM32.7261 37.2161C32.1704 37.2161 31.8085 37.476 31.5593 37.8652V37.3265H30.6047V41.756H31.568V39.2729C31.568 38.5399 31.8829 38.1326 32.5126 38.1326C32.7188 38.1297 32.9235 38.1675 33.115 38.2441L33.4119 37.3362C33.1987 37.2522 32.9207 37.2153 32.7256 37.2153L32.7261 37.2161ZM24.5062 37.3265H22.9311V35.9827H21.9573V37.3265H21.0588V38.2069H21.9573V40.2276C21.9573 41.2553 22.3562 41.8674 23.4957 41.8674C23.9138 41.8674 24.3953 41.7379 24.7008 41.5249L24.4225 40.7001C24.1351 40.8667 23.8201 40.9506 23.5696 40.9506C23.0882 40.9506 22.9311 40.6537 22.9311 40.2092V38.2077H24.5062V37.3265ZM10.1049 41.7571V38.9771C10.1049 37.9302 9.43769 37.2258 8.36215 37.2163C7.79672 37.2069 7.21348 37.3829 6.80513 38.0044C6.49961 37.5132 6.01812 37.2163 5.34122 37.2163C4.8681 37.2163 4.40577 37.3553 4.04384 37.8741V37.3265H3.07977V41.756H4.05139V39.2999C4.05139 38.531 4.47783 38.1224 5.13637 38.1224C5.77602 38.1224 6.09963 38.5394 6.09963 39.2902V41.7554H7.07341V39.2994C7.07341 38.5305 7.51792 38.1218 8.1573 38.1218C8.81504 38.1218 9.12893 38.5388 9.12893 39.2897V41.7549L10.1049 41.7571Z" fill="#231F20"/>
<path d="M53.7507 27.0221V26.3744H53.582L53.3869 26.8189L53.1928 26.3744H53.0236V27.0221H53.1434V26.5342L53.3259 26.9552H53.45L53.6325 26.5331V27.0221H53.7512H53.7507ZM52.6805 27.0221V26.4853H52.8965V26.376H52.3448V26.4853H52.5607V27.0221H52.6795H52.6805Z" fill="#F79410"/>
<path d="M34.5784 29.8009H19.9809V3.56708H34.5787L34.5784 29.8009Z" fill="#FF5F00"/>
<path d="M20.906 16.6842C20.906 11.3627 23.3977 6.62228 27.2777 3.56734C24.3407 1.2515 20.7082 -0.00538613 16.968 0.000140217C7.7546 0.000140217 0.286072 7.46975 0.286072 16.6842C0.286072 25.8987 7.7546 33.3683 16.968 33.3683C20.7083 33.3739 24.3409 32.117 27.278 29.8011C23.3982 26.7467 20.906 22.006 20.906 16.6842Z" fill="#EB001B"/>
<path d="M54.2712 16.6842C54.2712 25.8987 46.8026 33.3683 37.5892 33.3683C33.8486 33.3738 30.2155 32.1169 27.2779 29.8011C31.159 26.7462 33.6506 22.006 33.6506 16.6842C33.6506 11.3624 31.159 6.62228 27.2779 3.56734C30.2154 1.25157 33.8484 -0.00528927 37.589 0.000139584C46.8024 0.000139584 54.2709 7.46975 54.2709 16.6842" fill="#F79E1B"/>
</svg>
