<svg width="16" height="16" viewBox="0 0 16 16" fill="none" xmlns="http://www.w3.org/2000/svg">
<path fill-rule="evenodd" clip-rule="evenodd" d="M8.00011 13.2718C4.93407 11.5256 3.22403 9.78989 2.39712 8.28394C1.55078 6.74262 1.62462 5.44443 2.09426 4.52307C3.05957 2.62925 5.80464 2.02366 7.47715 4.13899L8.00007 4.80035L8.52303 4.13902C10.1958 2.02361 12.941 2.62929 13.9063 4.52307C14.376 5.44442 14.4498 6.74259 13.6034 8.28393C12.7764 9.78988 11.0663 11.5256 8.00011 13.2718ZM8.00013 2.73759C5.64733 0.501854 2.1764 1.42588 0.906342 3.91757C0.209314 5.28504 0.199793 7.05246 1.22839 8.92569C2.24785 10.7823 4.28046 12.742 7.67761 14.6197L8.0001 14.7979L8.32259 14.6197C11.7199 12.742 13.7526 10.7823 14.7721 8.92571C15.8008 7.05248 15.7913 5.28505 15.0943 3.91757C13.8242 1.42583 10.3531 0.501888 8.00013 2.73759Z" fill="#17696A"/>
</svg>
