<svg width="78" height="21" viewBox="0 0 78 21" fill="none" xmlns="http://www.w3.org/2000/svg">
<path d="M14.2748 2.38118C13.3587 1.33702 11.7027 0.889359 9.58428 0.889359H3.43585C3.22614 0.889246 3.02327 0.963985 2.86375 1.10012C2.70424 1.23627 2.59855 1.42486 2.56571 1.63199L0.00673097 17.8697C-0.00513462 17.945 -0.000529172 18.022 0.0202303 18.0954C0.0409898 18.1687 0.0774098 18.2368 0.126981 18.2947C0.176552 18.3526 0.238096 18.3992 0.307372 18.431C0.376649 18.4629 0.452011 18.4794 0.528267 18.4793H4.32405L5.27737 12.4327L5.24782 12.622C5.28003 12.4153 5.38501 12.2269 5.54385 12.0907C5.70268 11.9546 5.90492 11.8796 6.11412 11.8794H7.91788C11.4614 11.8794 14.236 10.4401 15.0465 6.27656C15.0705 6.15343 15.0913 6.03358 15.1094 5.91647C15.3502 4.37758 15.1078 3.33013 14.2754 2.38173" fill="#003087"/>
<path d="M60.7439 10.1076C60.5119 11.6312 59.3484 11.6312 58.2232 11.6312H57.5829L58.0322 8.78651C58.0596 8.61467 58.2074 8.48825 58.3814 8.48825H58.6753C59.4414 8.48825 60.1649 8.48825 60.5381 8.92442C60.7609 9.18546 60.8282 9.57292 60.7439 10.1076ZM60.2541 6.13231H56.0096C55.869 6.13238 55.7331 6.18255 55.6261 6.27383C55.5192 6.3651 55.4483 6.49149 55.4262 6.63031L53.7111 17.5136C53.7032 17.5641 53.7063 17.6156 53.7202 17.6648C53.7341 17.7139 53.7585 17.7595 53.7917 17.7983C53.8248 17.8371 53.866 17.8683 53.9124 17.8898C53.9587 17.9112 54.0092 17.9223 54.0603 17.9224H56.2383C56.4414 17.9224 56.6143 17.7747 56.646 17.5744L57.1331 14.4878C57.178 14.2016 57.4253 13.9898 57.7154 13.9898H59.0584C61.8548 13.9898 63.4682 12.6376 63.8895 9.95545C64.0794 8.78322 63.8972 7.86164 63.3483 7.21643C62.7447 6.50718 61.6748 6.13176 60.2547 6.13176" fill="#009CDE"/>
<path d="M30.4705 10.1077C30.2385 11.6313 29.075 11.6313 27.9493 11.6313H27.309L27.7583 8.78661C27.7857 8.61477 27.9334 8.48835 28.1074 8.48835H28.4013C29.1675 8.48835 29.891 8.48836 30.2642 8.92452C30.4875 9.18556 30.5548 9.57302 30.4705 10.1077ZM29.9807 6.13241H25.7362C25.4461 6.13241 25.1988 6.34365 25.1533 6.63042L23.4377 17.5137C23.4297 17.5642 23.4328 17.6158 23.4466 17.665C23.4605 17.7142 23.4849 17.7597 23.5181 17.7986C23.5512 17.8375 23.5925 17.8687 23.6389 17.89C23.6853 17.9114 23.7357 17.9225 23.7868 17.9225H25.8139C26.1039 17.9225 26.3507 17.7113 26.3962 17.4245L26.8597 14.4885C26.9046 14.2017 27.1519 13.9905 27.442 13.9905H28.785C31.5814 13.9905 33.1948 12.6377 33.6161 9.95555C33.806 8.78333 33.6238 7.86174 33.0749 7.21653C32.4713 6.50728 31.4014 6.13186 29.9813 6.13186L29.9807 6.13241ZM39.8352 14.0151C39.6382 15.1764 38.7171 15.9562 37.5411 15.9562C36.9517 15.9562 36.4794 15.7663 36.1762 15.4073C35.8752 15.0516 35.7625 14.5443 35.8577 13.9801C36.0405 12.8287 36.9774 12.0242 38.1354 12.0242C38.7127 12.0242 39.1807 12.2157 39.4904 12.578C39.8018 12.943 39.9244 13.4531 39.8352 14.0151ZM42.6678 10.0584H40.6353C40.5508 10.0583 40.469 10.0885 40.4048 10.1434C40.3406 10.1982 40.2981 10.2743 40.285 10.3578L40.1964 10.9258L40.0541 10.7201C39.6141 10.0814 38.6329 9.86744 37.6533 9.86744C35.4079 9.86744 33.4897 11.5694 33.1165 13.9555C32.9222 15.1468 33.198 16.2846 33.8733 17.0787C34.4934 17.8081 35.3783 18.1119 36.4329 18.1119C38.2432 18.1119 39.2469 16.9495 39.2469 16.9495L39.156 17.5143C39.148 17.5648 39.1511 17.6164 39.165 17.6657C39.1789 17.7149 39.2033 17.7605 39.2366 17.7994C39.2698 17.8382 39.3111 17.8694 39.3576 17.8908C39.404 17.9121 39.4546 17.9231 39.5057 17.9231H41.3358C41.6258 17.9231 41.8732 17.7124 41.9186 17.4251L43.0175 10.4678C43.0254 10.4172 43.0222 10.3656 43.0083 10.3164C42.9943 10.2671 42.9698 10.2215 42.9365 10.1827C42.9033 10.1438 42.8619 10.1127 42.8155 10.0913C42.769 10.0699 42.7184 10.0589 42.6672 10.059" fill="#003087"/>
<path d="M70.1079 14.0154C69.9109 15.1766 68.9899 15.9565 67.8138 15.9565C67.2244 15.9565 66.7521 15.7666 66.4489 15.4076C66.1479 15.0519 66.0352 14.5445 66.1304 13.9803C66.3132 12.8289 67.2496 12.0244 68.4081 12.0244C68.9855 12.0244 69.4534 12.216 69.7631 12.5783C70.0745 12.9433 70.1971 13.4533 70.1079 14.0154ZM72.9405 10.0587H70.908C70.8235 10.0586 70.7417 10.0887 70.6775 10.1436C70.6133 10.1985 70.5708 10.2746 70.5577 10.358L70.4691 10.9261L70.3268 10.7203C69.8868 10.0817 68.9056 9.86769 67.926 9.86769C65.6811 9.86769 63.763 11.5697 63.3892 13.9557C63.1949 15.1471 63.4713 16.2848 64.1466 17.0789C64.7667 17.8084 65.6516 18.1121 66.7062 18.1121C68.517 18.1121 69.5207 16.9497 69.5207 16.9497L69.4298 17.5145C69.4217 17.565 69.4246 17.6166 69.4383 17.6658C69.4521 17.715 69.4764 17.7607 69.5096 17.7996C69.5427 17.8385 69.584 17.8697 69.6304 17.891C69.6768 17.9124 69.7273 17.9234 69.7785 17.9233H71.6079C71.898 17.9233 72.1453 17.7126 72.1913 17.4253L73.2902 10.468C73.2981 10.4175 73.295 10.3658 73.281 10.3166C73.267 10.2674 73.2426 10.2218 73.2093 10.1829C73.176 10.1441 73.1347 10.1129 73.0882 10.0915C73.0417 10.0702 72.9911 10.0592 72.94 10.0592" fill="#009CDE"/>
<path d="M53.4944 10.059H51.4509C51.2556 10.059 51.0733 10.1559 50.9639 10.3179L48.1455 14.4683L46.9509 10.4799C46.9144 10.3582 46.8397 10.2516 46.7379 10.1757C46.6361 10.0998 46.5125 10.0587 46.3855 10.0585H44.3776C44.3213 10.0585 44.2659 10.072 44.2158 10.0977C44.1657 10.1235 44.1225 10.1608 44.0898 10.2066C44.057 10.2524 44.0357 10.3054 44.0275 10.3611C44.0193 10.4168 44.0245 10.4737 44.0427 10.5269L46.292 17.1302L44.1763 20.1154C44.1389 20.1684 44.1168 20.2307 44.1123 20.2954C44.1079 20.3601 44.1213 20.4247 44.1511 20.4823C44.1809 20.5399 44.226 20.5882 44.2814 20.622C44.3368 20.6557 44.4004 20.6736 44.4652 20.6736H46.5065C46.6991 20.6736 46.8803 20.579 46.9908 20.4203L53.7845 10.6145C53.8213 10.5615 53.843 10.4994 53.8471 10.435C53.8512 10.3705 53.8375 10.3062 53.8077 10.2489C53.7778 10.1917 53.7328 10.1437 53.6775 10.1103C53.6223 10.0768 53.559 10.0591 53.4944 10.059Z" fill="#003087"/>
<path d="M75.3366 6.43209L73.5941 17.5146C73.5862 17.5651 73.5893 17.6167 73.6033 17.6659C73.6172 17.7151 73.6416 17.7606 73.6749 17.7995C73.7081 17.8383 73.7493 17.8695 73.7958 17.8909C73.8422 17.9123 73.8927 17.9234 73.9438 17.9234H75.6956C75.9856 17.9234 76.233 17.7122 76.2784 17.4254L77.9962 6.54154C78.0042 6.49103 78.0012 6.43938 77.9873 6.39016C77.9734 6.34094 77.949 6.29533 77.9157 6.25646C77.8825 6.2176 77.8412 6.18641 77.7947 6.16505C77.7482 6.14369 77.6977 6.13267 77.6465 6.13274H75.6863C75.6019 6.13253 75.5202 6.16255 75.4561 6.21736C75.3919 6.27218 75.3495 6.34816 75.3366 6.43154" fill="#009CDE"/>
<path d="M14.2748 2.38118C13.3587 1.33702 11.7027 0.889359 9.58428 0.889359H3.43585C3.22614 0.889246 3.02327 0.963985 2.86375 1.10012C2.70424 1.23627 2.59855 1.42486 2.56571 1.63199L0.00673097 17.8697C-0.00513462 17.945 -0.000529172 18.022 0.0202303 18.0954C0.0409898 18.1687 0.0774098 18.2368 0.126981 18.2947C0.176552 18.3526 0.238096 18.3992 0.307372 18.431C0.376649 18.4629 0.452011 18.4794 0.528267 18.4793H4.32405L5.27737 12.4327L5.24782 12.622C5.28003 12.4153 5.38501 12.2269 5.54385 12.0907C5.70268 11.9546 5.90492 11.8796 6.11412 11.8794H7.91788C11.4614 11.8794 14.236 10.4401 15.0465 6.27656C15.0705 6.15343 15.0913 6.03358 15.1094 5.91647C15.3502 4.37758 15.1078 3.33013 14.2754 2.38173" fill="#003087"/>
<path d="M6.30192 5.93665C6.33068 5.75567 6.42301 5.59087 6.56232 5.47182C6.70163 5.35277 6.87881 5.28726 7.06206 5.28706H11.8823C12.4531 5.28706 12.9856 5.32427 13.4721 5.40198C13.7381 5.44478 14.0012 5.50362 14.2601 5.5782C14.5541 5.66086 14.8386 5.77422 15.1089 5.91641C15.3508 4.37697 15.1078 3.33007 14.2755 2.38112C13.3588 1.3375 11.7034 0.889845 9.58492 0.889845H3.43593C3.22641 0.889994 3.02381 0.964851 2.86452 1.10097C2.70523 1.23708 2.5997 1.42554 2.56689 1.63247L0.00681744 17.8685C-0.00512846 17.9438 -0.000601694 18.0208 0.0200861 18.0943C0.0407739 18.1677 0.0771307 18.2357 0.126651 18.2937C0.176172 18.3517 0.237678 18.3983 0.306933 18.4302C0.376187 18.4621 0.451542 18.4787 0.527806 18.4787H4.32413L5.27745 12.4315L6.30192 5.93665Z" fill="#003087"/>
<path d="M15.1092 5.91575C15.0904 6.03616 15.0694 6.15621 15.0463 6.27585C14.2358 10.4388 11.4612 11.8787 7.91769 11.8787H6.11338C5.90421 11.8788 5.70198 11.9538 5.54322 12.0899C5.38445 12.2261 5.27961 12.4146 5.24762 12.6213L4.32385 18.478L4.06116 20.1395C4.05072 20.2055 4.0547 20.2729 4.07284 20.3372C4.09098 20.4015 4.12284 20.461 4.16622 20.5118C4.2096 20.5626 4.26348 20.6033 4.32414 20.6313C4.3848 20.6592 4.45079 20.6737 4.51758 20.6736H7.71739C8.09609 20.6736 8.41788 20.3978 8.47753 20.0241L8.50873 19.861L9.1118 16.0389L9.15011 15.8277C9.17878 15.6466 9.27116 15.4816 9.4106 15.3625C9.55005 15.2435 9.72742 15.178 9.9108 15.1781H10.3896C13.4893 15.1781 15.9164 13.9194 16.6256 10.2768C16.9212 8.75547 16.7679 7.48419 15.9854 6.59162C15.7369 6.31489 15.4399 6.08585 15.1092 5.91575Z" fill="#009CDE"/>
<path d="M14.2592 5.57868C14.1355 5.54202 14.008 5.50918 13.8766 5.48018C13.7453 5.45117 13.6096 5.42545 13.4706 5.40356C12.9835 5.32421 12.4516 5.287 11.8803 5.287H7.06056C6.8771 5.28677 6.69962 5.3522 6.56021 5.47144C6.42079 5.59068 6.32864 5.75587 6.30042 5.93714L5.27595 12.4331L5.2464 12.6219C5.27839 12.4152 5.38323 12.2267 5.542 12.0905C5.70076 11.9543 5.90299 11.8794 6.11216 11.8793H7.91647C11.46 11.8793 14.2346 10.44 15.045 6.27644C15.0691 6.1533 15.0894 6.034 15.108 5.91634C14.8939 5.80435 14.671 5.71026 14.4414 5.63505C14.3818 5.61535 14.321 5.59674 14.2592 5.57814" fill="#012169"/>
</svg>
