<svg width="32" height="32" viewBox="0 0 32 32" fill="none" xmlns="http://www.w3.org/2000/svg">
<path fill-rule="evenodd" clip-rule="evenodd" d="M21.4237 13.8813C22.8201 14.9486 22.8201 17.0514 21.4237 18.1187L15.3171 22.786C13.5623 24.1272 11.0311 22.8759 11.0311 20.6673V11.3328C11.0311 9.12415 13.5623 7.8729 15.3171 9.21408L21.4237 13.8813ZM19.8043 16L13.6978 11.3328L13.6978 20.6673L19.8043 16Z" fill="white"/>
<path fill-rule="evenodd" clip-rule="evenodd" d="M15.9999 3.99998C9.37253 3.99998 3.99995 9.37256 3.99995 16C3.99995 22.6274 9.37253 28 15.9999 28C22.6274 28 27.9999 22.6274 27.9999 16C27.9999 9.37256 22.6274 3.99998 15.9999 3.99998ZM1.33328 16C1.33328 7.8998 7.89977 1.33331 15.9999 1.33331C24.1001 1.33331 30.6666 7.8998 30.6666 16C30.6666 24.1002 24.1001 30.6666 15.9999 30.6666C7.89977 30.6666 1.33328 24.1002 1.33328 16Z" fill="white"/>
</svg>
