<svg width="72" height="24" viewBox="0 0 72 24" fill="none" xmlns="http://www.w3.org/2000/svg">
<path d="M30.8271 22.6848H25.0247L28.6512 0.39817H34.4541L30.8271 22.6848ZM20.1434 0.39817L14.6117 15.7271L13.9571 12.4262L13.9577 12.4274L12.0053 2.40483C12.0053 2.40483 11.7692 0.39817 9.25288 0.39817H0.107857L0.000549316 0.775536C0.000549316 0.775536 2.79711 1.35738 6.07 3.32291L11.1111 22.6854H17.1567L26.3882 0.39817H20.1434ZM65.7821 22.6848H71.1099L66.4647 0.397574H61.8004C59.6465 0.397574 59.1218 2.05846 59.1218 2.05846L50.468 22.6848H56.5166L57.7262 19.3744H65.1025L65.7821 22.6848ZM59.3973 14.8013L62.446 6.46107L64.1611 14.8013H59.3973ZM50.9217 5.7576L51.7498 0.97167C51.7498 0.97167 49.1947 -6.10352e-05 46.531 -6.10352e-05C43.6516 -6.10352e-05 36.8137 1.25842 36.8137 7.37795C36.8137 13.1356 44.8392 13.2072 44.8392 16.2315C44.8392 19.2557 37.6406 18.7138 35.2649 16.8067L34.4023 21.8109C34.4023 21.8109 36.9932 23.0694 40.9516 23.0694C44.9113 23.0694 50.8848 21.0192 50.8848 15.4392C50.8848 9.64453 42.7872 9.10502 42.7872 6.58566C42.7878 4.06572 48.4387 4.38943 50.9217 5.7576Z" fill="#2566AF"/>
<path d="M13.9577 12.4267L12.0053 2.40418C12.0053 2.40418 11.7692 0.397522 9.25288 0.397522H0.107857L0.000549316 0.774888C0.000549316 0.774888 4.396 1.68581 8.61201 5.0988C12.6432 8.36096 13.9577 12.4267 13.9577 12.4267Z" fill="#E6A540"/>
</svg>
