<?xml version="1.0" standalone="no"?>
<!DOCTYPE svg PUBLIC "-//W3C//DTD SVG 1.1//EN" "http://www.w3.org/Graphics/SVG/1.1/DTD/svg11.dtd" >
<svg xmlns="http://www.w3.org/2000/svg">
<metadata>Generated by IcoMoon</metadata>
<defs>
<font id="icomoon" horiz-adv-x="1024">
<font-face units-per-em="1024" ascent="960" descent="-64" />
<missing-glyph horiz-adv-x="1024" />
<glyph unicode="&#x20;" horiz-adv-x="512" d="" />
<glyph unicode="&#xe900;" glyph-name="Empty-Cart" d="M1001.539 710.472c-19.41 23.72-49.608 38.137-80.855 38.137h-656.548l-20.467 76.274c-11.876 44.339-52.81 75.267-100.273 75.267h-109.957c-18.319 0-33.439-14.416-33.439-31.975 0-17.518 15.076-31.976 33.439-31.976h109.957c16.172 0 30.196-10.31 34.491-25.774l131.518-501.059c11.876-44.339 52.81-75.269 100.273-75.269h430.146c47.416 0 89.492 30.93 100.27 75.269l80.86 317.54c7.537 28.915 1.096 59.844-19.415 83.564v0.003zM955.218 641.407l-80.86-317.541c-4.296-15.462-18.319-25.774-34.493-25.774h-430.185c-16.172 0-30.196 10.312-34.491 25.774l-93.787 359.779h639.329c10.783 0 21.565-5.155 28.047-13.41 6.446-8.216 9.646-18.525 6.446-28.835l-0.005 0.007zM432.352 192.947c-61.444 0-112.102-48.445-112.102-107.197s50.663-107.197 112.102-107.197c61.444-0.041 112.104 48.404 112.104 107.167 0 58.757-50.664 107.238-112.104 107.238v-0.010zM432.352 43.459c-24.805 0-44.219 18.565-44.219 42.286s19.415 42.286 44.219 42.286c24.805 0 44.22-18.565 44.22-42.286-0.042-22.712-20.509-42.286-44.22-42.286zM803.2 192.947c-61.44 0-112.102-48.445-112.102-107.197s50.668-107.197 112.102-107.197c61.44 0 112.102 48.445 112.102 107.197-1.050 58.716-50.662 107.197-112.102 107.197zM803.2 43.464c-24.801 0-44.216 18.565-44.216 42.281 0 23.721 19.415 42.286 44.216 42.286 24.806 0 44.221-18.565 44.221-42.286 0-22.712-20.511-42.281-44.221-42.281z" />
<glyph unicode="&#xe901;" glyph-name="Account" d="M512.691 960c174.761 0 316.938-135.404 316.938-301.844 0-112.845-65.183-211.558-159.939-262.359 192.527-59.238 334.7-220.037 352.461-420.321 5.924-50.76-94.792-53.601-97.731-5.642-20.751 200.284-201.431 352.604-411.73 352.604-213.274 0-390.972-152.32-411.724-352.604-5.922-47.959-106.638-45.117-100.716 5.642 20.748 197.478 162.915 361.083 352.462 420.321-94.794 50.76-159.936 149.524-159.936 262.359 0 166.441 145.152 301.844 319.914 301.844zM512.691 864.080c-121.422 0-219.201-93.080-219.201-205.916 0-115.64 97.733-208.763 219.201-208.763 118.487 0 216.212 93.080 216.212 208.763 0 112.845-97.736 205.916-216.212 205.916z" />
<glyph unicode="&#xe902;" glyph-name="Play" d="M685.558 515.798c44.685-34.154 44.685-101.443 0-135.597l-195.411-149.354c-56.154-42.918-137.152-2.877-137.152 67.798v298.704c0 70.677 80.998 110.717 137.152 67.799l195.411-149.351zM633.738 448l-195.408 149.35v-298.704l195.408 149.354zM511.997 832.001c-212.076 0-383.998-171.923-383.998-384.001s171.923-384 383.998-384c212.080 0 384 171.923 384 384s-171.92 384.001-384 384.001zM42.665 448c0 259.206 210.128 469.334 469.332 469.334 259.206 0 469.334-210.128 469.334-469.334s-210.128-469.331-469.334-469.331c-259.204 0-469.332 210.125-469.332 469.331z" />
<glyph unicode="&#xe903;" glyph-name="pinterest" d="M524.861 917.334c-259.126-0.039-396.861-164.895-396.861-344.652 0-83.347 46.909-187.346 122.020-220.314 21.426-9.585 18.59 2.109 37.023 72.12 1.458 5.827 0.709 10.875-4.017 16.307-107.368 123.321-20.954 376.843 226.512 376.843 358.143 0 291.225-492.104 62.309-492.104-59.003 0-102.957 45.998-89.053 102.902 16.857 67.783 49.864 140.647 49.864 189.498 0 123.123-184.724 104.858-184.724-58.277 0-50.415 17.96-84.442 17.96-84.442s-59.434-238.427-70.462-282.971c-18.67-75.407 2.521-197.478 4.372-208 1.142-5.786 7.68-7.624 11.343-2.852 5.869 7.624 77.71 109.394 97.836 182.963 7.326 26.793 37.378 135.521 37.378 135.521 19.811-35.512 76.922-65.239 137.774-65.239 181.023 0 311.864 158.013 311.864 354.079-0.63 187.971-162.627 328.616-371.139 328.616v0z" />
<glyph unicode="&#xe904;" horiz-adv-x="3803" d="M2961.988 467.134c-11.313-74.294-68.047-74.294-122.914-74.294h-31.222l21.909 138.713c1.336 8.379 8.543 14.544 17.028 14.544h14.331c37.356 0 72.636 0 90.834-21.268 10.864-12.729 14.146-31.622 10.035-57.694zM2938.105 660.977h-206.97c-6.856-0.003-13.483-2.45-18.7-6.901-5.213-4.45-8.67-10.614-9.748-17.383l-83.632-530.69c-0.385-2.462-0.234-4.974 0.444-7.373 0.678-2.394 1.868-4.618 3.486-6.51 1.614-1.892 3.623-3.413 5.886-4.462 2.258-1.044 4.72-1.585 7.212-1.59h106.203c9.904 0 18.334 7.202 19.88 16.969l23.752 150.508c2.189 13.956 14.248 24.283 28.394 24.283h65.487c136.358 0 215.030 65.936 235.574 196.723 9.26 57.16 0.375 102.098-26.39 133.56-29.433 34.584-81.603 52.891-150.85 52.891z" />
<glyph unicode="&#xe905;" horiz-adv-x="3803" d="M1485.8 467.129c-11.313-74.294-68.047-74.294-122.939-74.294h-31.222l21.909 138.713c1.336 8.379 8.538 14.544 17.023 14.544h14.331c37.361 0 72.641 0 90.839-21.268 10.889-12.729 14.17-31.622 10.060-57.694zM1461.916 660.972h-206.97c-14.146 0-26.205-10.3-28.423-24.284l-83.656-530.689c-0.39-2.462-0.239-4.979 0.434-7.378 0.678-2.399 1.868-4.618 3.486-6.515 1.614-1.897 3.628-3.418 5.89-4.457 2.263-1.044 4.72-1.585 7.212-1.585h98.845c14.141 0 26.175 10.299 28.394 24.283l22.601 143.165c2.189 13.985 14.248 24.283 28.394 24.283h65.487c136.358 0 215.030 65.965 235.574 196.752 9.26 57.16 0.375 102.098-26.39 133.56-29.433 34.584-81.603 52.891-150.85 52.891l-0.029-0.027zM1942.44 276.597c-9.606-56.627-54.521-94.652-111.865-94.652-28.74 0-51.771 9.26-66.555 26.765-14.677 17.345-20.173 42.082-15.531 69.593 8.914 56.144 54.599 95.373 111.065 95.373 28.15 0 50.971-9.338 66.072-27.004 15.184-17.798 21.163-42.672 16.813-70.076zM2080.563 469.533h-99.109c-4.12 0.005-8.109-1.468-11.24-4.145-3.131-2.672-5.203-6.383-5.842-10.455l-4.32-27.697-6.939 10.030c-21.455 31.144-69.3 41.577-117.068 41.577-109.49 0-203.025-82.991-221.223-199.342-9.474-58.090 3.974-113.571 36.903-152.293 30.237-35.567 73.387-50.381 124.811-50.381 88.274 0 137.216 56.681 137.216 56.681l-4.432-27.541c-0.39-2.462-0.239-4.979 0.439-7.383 0.678-2.399 1.868-4.623 3.491-6.519 1.619-1.892 3.633-3.413 5.9-4.457 2.263-1.039 4.73-1.575 7.222-1.575h89.239c14.141 0 26.205 10.274 28.418 24.283l53.584 339.251c0.385 2.467 0.229 4.983-0.449 7.383-0.683 2.404-1.877 4.628-3.501 6.519-1.619 1.897-3.638 3.413-5.9 4.457-2.267 1.044-4.735 1.58-7.231 1.575z" />
<glyph unicode="&#xe906;" horiz-adv-x="3803" d="M3418.595 276.582c-9.606-56.622-54.516-94.652-111.865-94.652-28.74 0-51.771 9.26-66.555 26.765-14.677 17.345-20.173 42.086-15.531 69.598 8.914 56.144 54.574 95.373 111.065 95.373 28.155 0 50.971-9.343 66.072-27.009 15.184-17.798 21.163-42.667 16.813-70.076zM3556.718 469.519h-99.109c-4.12 0.005-8.109-1.463-11.24-4.14s-5.203-6.388-5.842-10.455l-4.32-27.702-6.939 10.035c-21.455 31.139-69.3 41.575-117.068 41.575-109.466 0-202.996-82.993-221.223-199.339-9.474-58.095 4.003-113.571 36.932-152.293 30.237-35.572 73.387-50.381 124.811-50.381 88.298 0 137.24 56.681 137.24 56.681l-4.432-27.541c-0.395-2.462-0.254-4.979 0.414-7.378 0.673-2.399 1.858-4.628 3.477-6.524 1.614-1.897 3.628-3.418 5.89-4.457 2.263-1.044 4.725-1.58 7.222-1.575h89.205c14.146 0 26.205 10.274 28.448 24.283l53.584 339.251c0.385 2.462 0.234 4.983-0.449 7.383s-1.872 4.623-3.496 6.519c-1.624 1.892-3.638 3.413-5.905 4.457-2.267 1.039-4.735 1.575-7.227 1.575z" />
<glyph unicode="&#xe907;" horiz-adv-x="3803" d="M2608.489 469.504h-99.645c-9.523 0-18.412-4.725-23.747-12.624l-137.431-202.381-58.251 194.482c-1.78 5.934-5.422 11.132-10.386 14.833s-10.991 5.705-17.184 5.715h-97.909c-2.745 0-5.447-0.658-7.89-1.911-2.443-1.258-4.549-3.077-6.144-5.31-1.599-2.233-2.638-4.818-3.038-7.534s-0.146-5.491 0.741-8.085l109.68-321.989-103.166-145.564c-1.824-2.584-2.901-5.622-3.121-8.777-0.215-3.155 0.439-6.305 1.892-9.114s3.652-5.164 6.354-6.812c2.701-1.643 5.803-2.516 8.962-2.516h99.538c9.392 0 18.227 4.613 23.615 12.351l331.274 478.149c1.794 2.584 2.853 5.612 3.052 8.753 0.2 3.145-0.468 6.281-1.921 9.075-1.458 2.789-3.652 5.13-6.349 6.758-2.692 1.634-5.778 2.497-8.928 2.501z" />
<glyph unicode="&#xe908;" horiz-adv-x="3803" d="M3673.556 646.359l-84.968-540.404c-0.385-2.462-0.234-4.979 0.449-7.378 0.678-2.399 1.868-4.618 3.491-6.515 1.619-1.892 3.628-3.413 5.895-4.457 2.263-1.044 4.725-1.585 7.217-1.585h85.421c14.141 0 26.205 10.299 28.418 24.283l83.763 530.718c0.39 2.463 0.244 4.982-0.434 7.382s-1.868 4.624-3.491 6.519c-1.619 1.895-3.633 3.416-5.9 4.457s-4.73 1.579-7.227 1.575h-95.583c-4.116 0.010-8.099-1.454-11.225-4.126-3.131-2.673-5.198-6.378-5.827-10.444z" />
<glyph unicode="&#xe909;" horiz-adv-x="3803" d="M696.066 843.889c-44.671 50.915-125.42 72.744-228.719 72.744h-299.809c-10.226 0.006-20.118-3.639-27.897-10.277s-12.932-15.835-14.533-25.935l-124.781-791.782c-0.579-3.672-0.354-7.426 0.658-11.006 1.012-3.574 2.788-6.895 5.205-9.718s5.418-5.096 8.796-6.646c3.378-1.556 7.053-2.36 10.771-2.355h185.090l46.486 294.844-1.441-9.231c1.571 10.079 6.69 19.266 14.435 25.907 7.745 6.636 17.606 10.294 27.807 10.303h87.955c172.789 0 308.084 70.183 347.605 273.205 1.17 6.004 2.185 11.848 3.067 17.559 11.742 75.039-0.078 126.115-40.667 172.361z" />
<glyph unicode="&#xe90a;" horiz-adv-x="3803" d="M307.294 670.518c1.402 8.825 5.905 16.861 12.698 22.666s15.433 8.999 24.368 9.009h235.044c27.833 0 53.799-1.814 77.522-5.604 12.971-2.087 25.8-4.956 38.424-8.593 14.336-4.031 28.209-9.558 41.389-16.492 11.796 75.066-0.054 126.115-40.638 172.387-44.7 50.889-125.42 72.717-228.722 72.717h-299.836c-10.217-0.007-20.096-3.657-27.863-10.295s-12.913-15.827-14.513-25.917l-124.834-791.7c-0.583-3.672-0.362-7.426 0.647-11.010 1.009-3.579 2.782-6.895 5.196-9.723s5.414-5.1 8.791-6.656c3.377-1.556 7.051-2.365 10.77-2.365h185.116l46.486 294.873 49.955 316.701z" />
<glyph unicode="&#xe90b;" horiz-adv-x="3803" d="M736.753 671.537c-0.917-5.871-1.941-11.725-3.067-17.559-39.522-202.993-174.816-273.206-347.605-273.206h-87.982c-10.2-0.005-20.061-3.662-27.802-10.299-7.742-6.641-12.854-15.833-14.414-25.912l-45.045-285.584-12.809-81.018c-0.509-3.218-0.315-6.505 0.57-9.64s2.438-6.037 4.553-8.514c2.115-2.477 4.743-4.462 7.7-5.827 2.958-1.36 6.176-2.068 9.433-2.063h156.029c18.466 0 34.157 13.449 37.066 31.671l1.521 7.953 29.407 186.373 1.868 10.299c1.398 8.831 5.903 16.876 12.702 22.684 6.8 5.803 15.449 8.997 24.391 8.992h23.347c151.147 0 269.497 61.377 304.079 238.997 14.414 74.183 6.939 136.173-31.217 179.696-12.117 13.494-26.6 24.662-42.725 32.957z" />
<glyph unicode="&#xe90c;" horiz-adv-x="3803" d="M695.306 687.973c-6.032 1.788-12.249 3.389-18.656 4.803-6.402 1.415-13.019 2.669-19.797 3.736-23.752 3.869-49.688 5.684-77.546 5.684h-235.020c-8.946 0.011-17.6-3.179-24.398-8.994s-11.292-13.869-12.668-22.708l-49.955-316.755-1.441-9.206c1.56 10.079 6.672 19.271 14.414 25.912s17.603 10.294 27.802 10.299h87.982c172.789 0 308.084 70.183 347.601 273.206 1.175 6.005 2.165 11.822 3.072 17.559-10.44 5.461-21.309 10.049-32.505 13.716-2.906 0.961-5.871 1.868-8.884 2.775z" />
<glyph unicode="&#xe90d;" glyph-name="Outline" d="M511.977-12.8c-9.389 0-18.778 2.964-26.592 8.899l-22.654 17.203c-208.078 157.676-333.657 252.877-406.759 379.889-70.086 121.37-61.667 217.236-42.343 276.249 23.564 71.718 76.568 129.436 149.38 162.535 37.436 16.966 78.143 25.626 120.849 25.626 90.318 0 173.791-37.669 228.129-99.776 54.337 62.107 137.752 99.776 228.13 99.776 42.706 0 83.354-8.602 120.786-25.567 72.817-33.1 125.88-90.76 149.443-162.535 19.384-58.963 27.745-154.82-42.342-276.246-73.175-127.007-198.927-222.336-407.255-380.242l-22.113-16.906c-7.875-5.929-17.265-8.904-26.657-8.904zM283.848 772.419c-30.046 0-58.395-5.932-84.321-17.678-50.52-22.957-87.169-62.465-103.16-111.343-20.172-61.397-7.935-133.471 35.254-208.336 64.089-111.345 176.645-197.069 380.288-351.478 203.657 154.348 316.21 240.179 380.286 351.416 43.254 74.922 55.429 146.996 35.318 208.397-16.056 48.82-52.7 88.387-103.224 111.343-25.866 11.745-54.211 17.678-84.26 17.678-81.592 0-157.43-44.372-188.692-110.394-7.086-15.068-22.533-24.677-39.436-24.677-16.962 0-32.286 9.61-39.435 24.677-31.196 66.023-107.022 110.394-188.618 110.394z" />
<glyph unicode="&#xe90e;" glyph-name="outline" d="M512.007 110.605c-196.227 111.757-305.669 222.842-358.591 319.223-54.166 98.644-49.44 181.729-19.383 240.696 61.78 121.204 237.464 159.962 344.505 24.581l33.467-42.327 33.469 42.325c107.057 135.386 282.75 96.623 344.529-24.579 30.061-58.966 34.784-142.049-19.386-240.695-52.928-96.381-162.374-207.467-358.611-319.224zM512.008 784.794c-150.579 143.087-372.719 83.949-454.002-75.519-44.61-87.518-45.219-200.633 20.611-320.52 65.245-118.823 195.332-244.244 412.75-364.417l20.639-11.405 20.639 11.405c217.428 120.173 347.521 245.594 412.769 364.415 65.837 119.887 65.229 233.002 20.621 320.521-81.286 159.471-303.437 218.604-454.027 75.519z" />
<glyph unicode="&#xe90f;" horiz-adv-x="1341" d="M1297.069-50.010v-2.631h2.453c0.461-0.007 0.917 0.107 1.317 0.334 0.161 0.115 0.29 0.266 0.375 0.441s0.127 0.371 0.117 0.566c0.010 0.193-0.032 0.383-0.117 0.556-0.088 0.171-0.217 0.317-0.375 0.427-0.397 0.236-0.853 0.354-1.317 0.334h-2.453v-0.027zM1299.549-48.148c1.053 0.066 2.094-0.236 2.948-0.856 0.344-0.28 0.614-0.636 0.795-1.041 0.178-0.405 0.261-0.846 0.239-1.287 0.015-0.38-0.051-0.761-0.193-1.114-0.144-0.351-0.361-0.67-0.636-0.931-0.658-0.573-1.485-0.917-2.355-0.983l3.289-3.75h-2.533l-3.028 3.725h-0.98v-3.725h-2.119v9.957h4.608l-0.034 0.005zM1298.89-61.545c1.112-0.010 2.211 0.215 3.23 0.658 0.983 0.422 1.875 1.029 2.633 1.782 0.758 0.756 1.363 1.648 1.782 2.633 0.863 2.085 0.863 4.43 0 6.515-0.424 0.98-1.029 1.872-1.782 2.633-0.758 0.753-1.651 1.358-2.633 1.782-1.024 0.419-2.124 0.631-3.23 0.619-1.126 0.010-2.243-0.2-3.289-0.619-1.004-0.414-1.919-1.022-2.692-1.782-1.165-1.195-1.953-2.706-2.265-4.342-0.312-1.638-0.137-3.333 0.507-4.871 0.402-0.987 1-1.882 1.758-2.633 0.773-0.761 1.687-1.368 2.692-1.782 1.039-0.444 2.16-0.668 3.289-0.658v0.066zM1298.89-42.528c2.892 0.002 5.669-1.131 7.731-3.157 0.995-0.975 1.787-2.136 2.331-3.416 0.563-1.317 0.851-2.731 0.851-4.162s-0.288-2.848-0.851-4.162c-0.556-1.275-1.346-2.433-2.331-3.416-1.009-0.968-2.182-1.748-3.467-2.304-1.348-0.573-2.799-0.863-4.264-0.856-1.482-0.010-2.95 0.28-4.315 0.856-1.3 0.544-2.484 1.324-3.496 2.304-0.983 1.019-1.763 2.216-2.294 3.528-0.563 1.314-0.853 2.731-0.853 4.162 0 1.429 0.29 2.845 0.853 4.162 0.541 1.28 1.334 2.441 2.328 3.413 0.997 0.997 2.185 1.782 3.494 2.304 1.365 0.575 2.836 0.866 4.318 0.856l-0.034-0.112zM291.316-4.079c0 18.985 12.437 34.58 32.763 34.58 19.427 0 32.534-14.924 32.534-34.58s-13.107-34.58-32.534-34.58c-20.326 0-32.763 15.596-32.763 34.58zM378.756-4.079v54.023h-23.486v-13.158c-7.448 9.726-18.747 15.823-34.111 15.823-30.269 0-54.023-23.74-54.023-56.715 0-32.973 23.74-56.715 54.023-56.715 15.358 0 26.663 6.107 34.111 15.826v-13.115h23.459v54.031h0.027zM1172.285-4.079c0 18.985 12.437 34.58 32.77 34.58 19.444 0 32.534-14.924 32.534-34.58s-13.090-34.58-32.534-34.58c-20.326 0-32.77 15.596-32.77 34.58zM1259.752-4.079v97.387h-23.506v-56.522c-7.448 9.726-18.747 15.823-34.111 15.823-30.269 0-54.026-23.74-54.026-56.715 0-32.973 23.742-56.715 54.026-56.715 15.365 0 26.663 6.107 34.111 15.826v-13.115h23.506v54.031zM670.235 31.612c15.136 0 24.854-9.489 27.336-26.195h-56.037c2.506 15.594 11.976 26.195 28.709 26.195h-0.007zM670.71 52.67c-31.651 0-53.794-23.033-53.794-56.715 0-34.343 23.030-56.717 55.367-56.717 16.267 0 31.164 4.062 44.271 15.136l-11.508 17.406c-9.055-7.239-20.582-11.298-31.422-11.298-15.133 0-28.913 7.007-32.302 26.451h80.194c0.232 2.923 0.468 5.871 0.468 9.028-0.236 33.673-21.058 56.715-51.288 56.715l0.015-0.005zM954.241-4.040c0 18.985 12.437 34.58 32.763 34.58 19.424 0 32.534-14.924 32.534-34.58s-13.11-34.58-32.534-34.58c-20.326 0-32.77 15.596-32.77 34.58h0.007zM1041.674-4.040v53.984h-23.472v-13.158c-7.475 9.726-18.749 15.823-34.114 15.823-30.269 0-54.023-23.74-54.023-56.715 0-32.973 23.742-56.715 54.023-56.715 15.365 0 26.639 6.107 34.114 15.826v-13.115h23.479v54.031l-0.007 0.039zM821.616-4.040c0-32.763 22.806-56.715 57.617-56.715 16.267 0 27.104 3.618 38.824 12.878l-11.281 18.983c-8.816-6.337-18.076-9.726-28.294-9.726-18.747 0.232-32.534 13.787-32.534 34.58 0 20.795 13.787 34.343 32.534 34.58 10.194 0 19.451-3.389 28.294-9.726l11.281 18.985c-11.739 9.257-22.579 12.876-38.824 12.876-34.811 0-57.617-23.945-57.617-56.715zM1124.374 52.675c-13.548 0-22.372-6.337-28.472-15.826v13.095h-23.274v-107.995h23.511v60.54c0 17.871 7.68 27.802 23.030 27.802 5.027 0.071 10.021-0.851 14.69-2.718l7.236 22.135c-5.198 2.048-11.976 2.948-16.733 2.948l0.012 0.020zM494.865 41.357c-11.298 7.448-26.868 11.298-44.042 11.298-27.363 0-44.978-13.115-44.978-34.572 0-17.608 13.115-28.472 37.266-31.861l11.093-1.58c12.878-1.809 18.959-5.198 18.959-11.298 0-8.35-8.555-13.115-24.617-13.115-16.267 0-28.006 5.198-35.923 11.298l-11.035-18.313c12.878-9.489 29.145-14.017 46.76-14.017 31.191 0 49.267 14.687 49.267 35.25 0 18.985-14.226 28.916-37.732 32.305l-11.067 1.604c-10.167 1.317-18.315 3.362-18.315 10.601 0 7.897 7.68 12.646 20.565 12.646 13.785 0 27.129-5.198 33.67-9.257l10.167 18.983-0.039 0.027zM797.893 52.636c-13.548 0-22.372-6.337-28.448-15.826v13.134h-23.274v-107.995h23.486v60.54c0 17.871 7.678 27.802 23.030 27.802 5.027 0.071 10.018-0.851 14.687-2.718l7.239 22.135c-5.198 2.048-11.976 2.948-16.733 2.948l0.012-0.020zM597.484 49.944h-38.402v32.763h-23.742v-32.763h-21.906v-21.465h21.906v-49.267c0-25.056 9.726-39.98 37.508-39.98 10.194 0 21.933 3.157 29.381 8.35l-6.785 20.109c-7.007-4.062-14.687-6.107-20.795-6.107-11.737 0-15.567 7.239-15.567 18.076v48.798h38.402v21.484zM246.367-58.078v67.779c0 25.524-16.267 42.698-42.49 42.93-13.786 0.229-28.006-4.062-37.962-19.215-7.449 11.976-19.188 19.215-35.692 19.215-11.535 0-22.807-3.389-31.631-16.038v13.351h-23.505v-107.995h23.689v59.882c0 18.747 10.397 28.709 26.453 28.709 15.595 0 23.485-10.167 23.485-28.472v-60.104h23.742v59.88c0 18.747 10.838 28.711 26.426 28.711 16.036 0 23.689-10.167 23.689-28.475v-60.104l23.795-0.054z" />
<glyph unicode="&#xe910;" horiz-adv-x="1341" d="M1310.493 301.175v15.792h-4.113l-4.757-10.837-4.732 10.837h-4.125v-15.792h2.921v11.895l4.45-10.264h3.026l4.45 10.291v-11.922h2.882zM1284.401 301.175v13.088h5.266v2.665h-13.451v-2.665h5.264v-13.088h2.921z" />
<glyph unicode="&#xe911;" horiz-adv-x="1341" d="M843.054 233.426h-355.901v639.606h355.908l-0.007-639.606z" />
<glyph unicode="&#xe912;" horiz-adv-x="1341" d="M509.708 553.223c0 129.743 60.75 245.319 155.348 319.802-71.607 56.462-160.171 87.106-251.36 86.972-224.631 0-406.721-182.116-406.721-406.773s182.090-406.774 406.721-406.774c91.192-0.137 179.758 30.508 251.368 86.972-94.593 74.469-155.355 190.052-155.355 319.803z" />
<glyph unicode="&#xe913;" horiz-adv-x="1341" d="M1323.184 553.223c0-224.658-182.092-406.774-406.723-406.774-91.199-0.134-179.778 30.51-251.399 86.972 94.625 74.481 155.372 190.052 155.372 319.803s-60.748 245.319-155.372 319.802c71.619 56.461 160.195 87.104 251.394 86.972 224.631 0 406.721-182.116 406.721-406.773z" />
<glyph unicode="&#xe914;" d="M849.725 244.087c0.679-7.952-5.527-14.786-13.427-14.786h-649.749c-7.88 0-14.079 6.801-13.429 14.738l46.563 568.301c0.579 7.059 6.418 12.492 13.432 12.492h554.68c6.993 0 12.825-5.405 13.424-12.444l48.505-568.302z" />
<glyph unicode="&#xe915;" d="M901.592 95.816c0.812-9.92-6.938-18.422-16.784-18.422h-745.083c-9.827 0-17.569 8.462-16.791 18.362l53.49 680.749c0.698 8.853 8.005 15.671 16.791 15.671h635.873c8.766 0 16.067-6.791 16.786-15.616l55.718-680.744z" />
<glyph unicode="&#xe916;" d="M497.594 293.269c-96.98 0-175.876 95.712-175.876 213.357 0 6.127 4.915 11.094 10.982 11.094 6.069 0 10.984-4.965 10.984-11.094 0-105.41 69.045-191.163 153.912-191.163 84.87 0 153.912 85.754 153.912 191.163 0 6.127 4.915 11.094 10.984 11.094 6.067 0 10.982-4.965 10.982-11.094-0.002-117.645-78.9-213.357-175.881-213.357z" />
<glyph unicode="&#xe917;" d="M605.853 509.6c-2.81 0-5.62 1.084-7.765 3.252-4.288 4.333-4.288 11.356 0 15.69l56.917 57.504c2.058 2.080 4.85 3.249 7.765 3.249s5.707-1.166 7.765-3.249l56.36-56.944c4.291-4.333 4.291-11.359 0-15.692-4.288-4.328-11.242-4.333-15.53 0l-48.598 49.097-49.147-49.654c-2.148-2.168-4.958-3.252-7.767-3.252z" />
<glyph unicode="&#xe918;" glyph-name="Left" d="M392.837 225.83c-16.663-16.661-43.677-16.661-60.34 0l-192 192c-16.662 16.661-16.662 43.678 0 60.339l192 192c16.663 16.662 43.677 16.662 60.34 0s16.662-43.677 0-60.34l-119.164-119.163h579.66c23.565 0 42.667-19.102 42.667-42.667s-19.102-42.667-42.667-42.667h-579.66l119.164-119.164c16.662-16.661 16.662-43.678 0-60.339z" />
<glyph unicode="&#xe919;" glyph-name="hanger" d="M974.266 272.685c0 0 0 0 0 0l-368.691 230.422c-6.428 4.018-13.857 6.149-21.437 6.149h-31.652v17.193c62.598 17.674 108.608 75.309 108.608 143.487 0 82.193-66.867 149.062-149.059 149.062-82.195 0-149.062-66.87-149.062-149.062 0-22.34 18.111-40.451 40.451-40.451s40.452 18.111 40.452 40.451c0 37.583 30.574 68.16 68.159 68.16 37.583 0 68.157-30.577 68.157-68.16s-30.577-68.159-68.157-68.159c-22.341 0-40.451-18.111-40.451-40.451v-52.069h-31.652c-7.58 0-15.009-2.131-21.437-6.149l-368.693-230.422c-31.162-19.475-49.767-53.043-49.767-89.792 0-58.387 47.502-105.888 105.888-105.888h812.221c58.387 0 105.888 47.501 105.888 105.888 0 36.749-18.605 70.317-49.766 89.792zM918.144 157.907h-812.221c-13.777 0-24.985 11.206-24.985 24.986 0 8.666 4.389 16.595 11.742 21.19l358.851 224.269h121.005l358.849-224.269c7.36-4.595 11.744-12.525 11.744-21.19 0-13.779-11.206-24.986-24.986-24.986z" />
<glyph unicode="&#xe91a;" glyph-name="Facebook" d="M749.348 917.139l-118.492 0.195c-133.129 0-219.162-90.67-219.162-231.007v-106.51h-119.143c-10.295 0-18.632-8.574-18.632-19.15v-154.319c0-10.578 8.346-19.144 18.632-19.144h119.143v-389.396c0-10.578 8.337-19.139 18.633-19.139h155.447c10.296 0 18.632 8.571 18.632 19.139v389.396h139.305c10.296 0 18.637 8.566 18.637 19.144l0.056 154.319c0 5.078-1.971 9.941-5.458 13.535s-8.243 5.615-13.184 5.615h-139.356v90.29c0 43.397 10.066 65.427 65.101 65.427l79.826 0.029c10.286 0 18.621 8.574 18.621 19.14v143.295c0 10.556-8.325 19.12-18.606 19.14z" />
<glyph unicode="&#xe91b;" glyph-name="Cart" horiz-adv-x="1088" d="M166.077 831.658c-4.167 0.314-9.949 0.342-20.794 0.342h-70.581c-23.564 0-42.667 19.102-42.667 42.666s19.103 42.667 42.667 42.667h70.581c0.402 0 0.804 0 1.206 0 9.159 0.001 18.227 0.002 25.999-0.583 8.648-0.652 18.696-2.182 29.090-6.819 14.628-6.525 27.124-17.036 36.060-30.33 6.349-9.446 9.578-19.082 11.702-27.491 1.908-7.556 3.461-16.491 5.030-25.515 0.068-0.396 0.138-0.792 0.207-1.188l10.166-58.456 555.264-16.436c21.76-0.643 40.563-1.199 56.051-2.905 16.365-1.803 32.595-5.192 48.16-13.486 23.59-12.567 42.656-32.203 54.515-56.154 7.834-15.806 10.739-32.127 12.058-48.542 1.248-15.53 1.248-34.342 1.242-56.11v-3.146c0.006-20.458 0.006-38.203-1.139-52.918-1.216-15.606-3.898-31.107-11.046-46.294-10.88-23.117-28.435-42.448-50.394-55.506-14.432-8.579-29.6-12.74-45.018-15.453-14.534-2.558-32.198-4.267-52.557-6.236l-415.315-40.192c-20.872-2.020-38.957-3.771-54.045-4.036-15.986-0.282-32.013 0.961-48.104 6.871-24.131 8.865-45.034 24.79-59.986 45.703-9.97 13.944-15.421 29.067-19.394 44.554-3.749 14.618-6.861 32.517-10.454 53.176l-54.077 310.947c-1.858 10.684-2.877 16.376-3.9 20.428-0.036 0.144-0.072 0.28-0.106 0.41-0.134 0.011-0.274 0.022-0.422 0.033zM279.666 681.139l28.719-165.132c3.938-22.645 6.499-37.185 9.309-48.143 2.68-10.451 4.801-14.234 6.152-16.124 4.984-6.97 11.951-12.279 19.995-15.234 2.18-0.801 6.391-1.841 17.178-1.651 11.31 0.198 26.008 1.59 48.886 3.804l412.22 39.892c22.33 2.161 36.653 3.578 47.526 5.491 10.355 1.822 14.221 3.585 16.192 4.758 7.315 4.353 13.171 10.796 16.794 18.502 0.979 2.075 2.362 6.092 3.181 16.575 0.851 11.005 0.883 25.396 0.883 47.834 0 23.829-0.032 39.183-0.973 50.888-0.896 11.2-2.419 15.398-3.462 17.493-3.949 7.983-10.304 14.529-18.17 18.718-2.061 1.099-6.214 2.748-17.382 3.978-11.674 1.286-27.021 1.772-50.835 2.477l-536.212 15.873zM394.702 213.331c-23.564 0-42.667-19.098-42.667-42.662s19.103-42.669 42.667-42.669c23.564 0 42.666 19.104 42.666 42.669s-19.102 42.662-42.666 42.662zM266.702 170.669c0 70.688 57.308 128 128 128s128-57.312 128-128c0-70.694-57.308-128-128-128s-128 57.306-128 128zM800.032 213.331c-23.558 0-42.662-19.098-42.662-42.662s19.104-42.669 42.662-42.669c23.565 0 42.669 19.104 42.669 42.669s-19.104 42.662-42.669 42.662zM672.032 170.669c0 70.688 57.312 128 128 128 70.694 0 128-57.312 128-128 0-70.694-57.306-128-128-128-70.688 0-128 57.306-128 128z" />
<glyph unicode="&#xe91c;" glyph-name="search" d="M1006.996 32.845l-183.762 182.415c143.483 183.695 128.389 445.316-36.536 610.143-86.835 86.784-202.696 134.597-326.008 134.597-123.375 0-239.176-47.815-326.009-134.597-86.838-86.785-134.681-202.569-134.681-325.805 0-123.299 47.845-239.026 134.681-325.805 86.839-86.784 202.695-134.595 326.009-134.595 101.982 0 202.698 33.956 283.235 98.135l182.528-184.97c11.31-11.3 25.175-16.364 40.274-16.364 15.094 0 28.964 6.292 40.269 16.364 22.671 21.376 22.671 57.841 0 80.497v-0.015zM808.141 499.598c0-93.075-36.485-179.911-101.985-245.319-65.449-65.403-153.564-101.919-245.469-101.919-91.907 0-180.024 36.465-245.47 101.919-65.448 65.408-101.984 153.472-101.984 245.319 0 93.074 36.486 179.911 101.984 245.316 65.448 65.407 153.564 101.921 245.47 101.921 93.133 0 180.025-36.463 245.469-101.921 65.449-65.457 101.985-152.247 101.985-245.316v0z" />
</font>
</defs>
</svg>
